<mxfile host="app.diagrams.net" modified="2023-09-20T13:53:48.565Z" agent="Mozilla/5.0 (Windows NT 10.0; Win64; x64) AppleWebKit/537.36 (KHTML, like Gecko) Chrome/116.0.0.0 Safari/537.36" etag="whp1fU7USWegpJFwhTvU" version="21.7.5" type="github">
  <diagram id="C5RBs43oDa-KdzZeNtuy" name="Page-1">
    <mxGraphModel dx="1802" dy="850" grid="1" gridSize="10" guides="1" tooltips="1" connect="1" arrows="1" fold="1" page="1" pageScale="1" pageWidth="827" pageHeight="1169" math="0" shadow="0">
      <root>
        <mxCell id="WIyWlLk6GJQsqaUBKTNV-0" />
        <mxCell id="WIyWlLk6GJQsqaUBKTNV-1" parent="WIyWlLk6GJQsqaUBKTNV-0" />
        <mxCell id="Tmlr_BJbro9G57cvRw0v-1" style="edgeStyle=orthogonalEdgeStyle;rounded=0;orthogonalLoop=1;jettySize=auto;html=1;entryX=0.5;entryY=0;entryDx=0;entryDy=0;" edge="1" parent="WIyWlLk6GJQsqaUBKTNV-1" source="WIyWlLk6GJQsqaUBKTNV-3" target="Tmlr_BJbro9G57cvRw0v-0">
          <mxGeometry relative="1" as="geometry" />
        </mxCell>
        <mxCell id="WIyWlLk6GJQsqaUBKTNV-3" value="开始" style="rounded=1;whiteSpace=wrap;html=1;fontSize=12;glass=0;strokeWidth=1;shadow=0;" parent="WIyWlLk6GJQsqaUBKTNV-1" vertex="1">
          <mxGeometry x="160" y="80" width="120" height="40" as="geometry" />
        </mxCell>
        <mxCell id="WIyWlLk6GJQsqaUBKTNV-11" value="结束" style="rounded=1;whiteSpace=wrap;html=1;fontSize=12;glass=0;strokeWidth=1;shadow=0;" parent="WIyWlLk6GJQsqaUBKTNV-1" vertex="1">
          <mxGeometry x="160" y="920" width="120" height="40" as="geometry" />
        </mxCell>
        <mxCell id="Tmlr_BJbro9G57cvRw0v-7" value="" style="group" vertex="1" connectable="0" parent="WIyWlLk6GJQsqaUBKTNV-1">
          <mxGeometry x="160" y="160" width="120" height="240" as="geometry" />
        </mxCell>
        <mxCell id="Tmlr_BJbro9G57cvRw0v-0" value="查询周推荐清单" style="rounded=0;whiteSpace=wrap;html=1;" vertex="1" parent="Tmlr_BJbro9G57cvRw0v-7">
          <mxGeometry width="120" height="60" as="geometry" />
        </mxCell>
        <mxCell id="Tmlr_BJbro9G57cvRw0v-2" value="查询大件库区内现有商品" style="rounded=0;whiteSpace=wrap;html=1;" vertex="1" parent="Tmlr_BJbro9G57cvRw0v-7">
          <mxGeometry y="90" width="120" height="60" as="geometry" />
        </mxCell>
        <mxCell id="Tmlr_BJbro9G57cvRw0v-3" style="edgeStyle=orthogonalEdgeStyle;rounded=0;orthogonalLoop=1;jettySize=auto;html=1;entryX=0.5;entryY=0;entryDx=0;entryDy=0;" edge="1" parent="Tmlr_BJbro9G57cvRw0v-7" source="Tmlr_BJbro9G57cvRw0v-0" target="Tmlr_BJbro9G57cvRw0v-2">
          <mxGeometry relative="1" as="geometry" />
        </mxCell>
        <mxCell id="Tmlr_BJbro9G57cvRw0v-4" value="查询库存&amp;gt;=0的商品" style="rounded=0;whiteSpace=wrap;html=1;" vertex="1" parent="Tmlr_BJbro9G57cvRw0v-7">
          <mxGeometry y="180" width="120" height="60" as="geometry" />
        </mxCell>
        <mxCell id="Tmlr_BJbro9G57cvRw0v-5" style="edgeStyle=orthogonalEdgeStyle;rounded=0;orthogonalLoop=1;jettySize=auto;html=1;exitX=0.5;exitY=1;exitDx=0;exitDy=0;entryX=0.5;entryY=0;entryDx=0;entryDy=0;" edge="1" parent="Tmlr_BJbro9G57cvRw0v-7" source="Tmlr_BJbro9G57cvRw0v-2" target="Tmlr_BJbro9G57cvRw0v-4">
          <mxGeometry relative="1" as="geometry" />
        </mxCell>
        <mxCell id="Tmlr_BJbro9G57cvRw0v-12" style="edgeStyle=orthogonalEdgeStyle;rounded=0;orthogonalLoop=1;jettySize=auto;html=1;entryX=0.5;entryY=0;entryDx=0;entryDy=0;fontFamily=Helvetica;fontSize=12;fontColor=default;" edge="1" parent="WIyWlLk6GJQsqaUBKTNV-1" source="Tmlr_BJbro9G57cvRw0v-9" target="Tmlr_BJbro9G57cvRw0v-11">
          <mxGeometry relative="1" as="geometry" />
        </mxCell>
        <mxCell id="Tmlr_BJbro9G57cvRw0v-9" value="大件库区删除不在推荐清单内，且库存&amp;lt;0的商品" style="rounded=0;whiteSpace=wrap;html=1;strokeColor=default;fontFamily=Helvetica;fontSize=12;fontColor=default;fillColor=default;" vertex="1" parent="WIyWlLk6GJQsqaUBKTNV-1">
          <mxGeometry x="160" y="430" width="120" height="60" as="geometry" />
        </mxCell>
        <mxCell id="Tmlr_BJbro9G57cvRw0v-10" style="edgeStyle=orthogonalEdgeStyle;rounded=0;orthogonalLoop=1;jettySize=auto;html=1;entryX=0.5;entryY=0;entryDx=0;entryDy=0;fontFamily=Helvetica;fontSize=12;fontColor=default;" edge="1" parent="WIyWlLk6GJQsqaUBKTNV-1" source="Tmlr_BJbro9G57cvRw0v-4" target="Tmlr_BJbro9G57cvRw0v-9">
          <mxGeometry relative="1" as="geometry" />
        </mxCell>
        <mxCell id="Tmlr_BJbro9G57cvRw0v-15" style="edgeStyle=orthogonalEdgeStyle;rounded=0;orthogonalLoop=1;jettySize=auto;html=1;entryX=0.5;entryY=0;entryDx=0;entryDy=0;fontFamily=Helvetica;fontSize=12;fontColor=default;" edge="1" parent="WIyWlLk6GJQsqaUBKTNV-1" source="Tmlr_BJbro9G57cvRw0v-11" target="Tmlr_BJbro9G57cvRw0v-14">
          <mxGeometry relative="1" as="geometry" />
        </mxCell>
        <mxCell id="Tmlr_BJbro9G57cvRw0v-11" value="不在清单且库存&amp;gt;=0的商品，发送取消补货需求的mq消息" style="rounded=0;whiteSpace=wrap;html=1;strokeColor=default;fontFamily=Helvetica;fontSize=12;fontColor=default;fillColor=default;" vertex="1" parent="WIyWlLk6GJQsqaUBKTNV-1">
          <mxGeometry x="160" y="530" width="120" height="60" as="geometry" />
        </mxCell>
        <mxCell id="Tmlr_BJbro9G57cvRw0v-34" style="edgeStyle=orthogonalEdgeStyle;rounded=0;orthogonalLoop=1;jettySize=auto;html=1;exitX=0.5;exitY=1;exitDx=0;exitDy=0;entryX=1;entryY=0.5;entryDx=0;entryDy=0;fontFamily=Helvetica;fontSize=12;fontColor=default;" edge="1" parent="WIyWlLk6GJQsqaUBKTNV-1" source="Tmlr_BJbro9G57cvRw0v-13" target="WIyWlLk6GJQsqaUBKTNV-11">
          <mxGeometry relative="1" as="geometry" />
        </mxCell>
        <mxCell id="Tmlr_BJbro9G57cvRw0v-13" value="不在清单内且库存&amp;gt;0的商品，发送产生移出需求mq消息" style="rounded=0;whiteSpace=wrap;html=1;strokeColor=default;fontFamily=Helvetica;fontSize=12;fontColor=default;fillColor=default;" vertex="1" parent="WIyWlLk6GJQsqaUBKTNV-1">
          <mxGeometry x="330" y="650" width="120" height="60" as="geometry" />
        </mxCell>
        <mxCell id="Tmlr_BJbro9G57cvRw0v-16" style="edgeStyle=orthogonalEdgeStyle;rounded=0;orthogonalLoop=1;jettySize=auto;html=1;entryX=0;entryY=0.5;entryDx=0;entryDy=0;fontFamily=Helvetica;fontSize=12;fontColor=default;" edge="1" parent="WIyWlLk6GJQsqaUBKTNV-1" source="Tmlr_BJbro9G57cvRw0v-14" target="Tmlr_BJbro9G57cvRw0v-13">
          <mxGeometry relative="1" as="geometry" />
        </mxCell>
        <mxCell id="Tmlr_BJbro9G57cvRw0v-17" value="是" style="edgeLabel;html=1;align=center;verticalAlign=middle;resizable=0;points=[];fontSize=12;fontFamily=Helvetica;fontColor=default;" vertex="1" connectable="0" parent="Tmlr_BJbro9G57cvRw0v-16">
          <mxGeometry x="-0.0457" relative="1" as="geometry">
            <mxPoint as="offset" />
          </mxGeometry>
        </mxCell>
        <mxCell id="Tmlr_BJbro9G57cvRw0v-21" style="edgeStyle=orthogonalEdgeStyle;rounded=0;orthogonalLoop=1;jettySize=auto;html=1;entryX=0.5;entryY=0;entryDx=0;entryDy=0;fontFamily=Helvetica;fontSize=12;fontColor=default;" edge="1" parent="WIyWlLk6GJQsqaUBKTNV-1" source="Tmlr_BJbro9G57cvRw0v-14" target="Tmlr_BJbro9G57cvRw0v-18">
          <mxGeometry relative="1" as="geometry" />
        </mxCell>
        <mxCell id="Tmlr_BJbro9G57cvRw0v-14" value="是否移出" style="rhombus;whiteSpace=wrap;html=1;rounded=0;strokeColor=default;fontFamily=Helvetica;fontSize=12;fontColor=default;fillColor=default;" vertex="1" parent="WIyWlLk6GJQsqaUBKTNV-1">
          <mxGeometry x="180" y="640" width="80" height="80" as="geometry" />
        </mxCell>
        <mxCell id="Tmlr_BJbro9G57cvRw0v-22" style="edgeStyle=orthogonalEdgeStyle;rounded=0;orthogonalLoop=1;jettySize=auto;html=1;entryX=0.5;entryY=0;entryDx=0;entryDy=0;fontFamily=Helvetica;fontSize=12;fontColor=default;" edge="1" parent="WIyWlLk6GJQsqaUBKTNV-1" source="Tmlr_BJbro9G57cvRw0v-18" target="WIyWlLk6GJQsqaUBKTNV-11">
          <mxGeometry relative="1" as="geometry" />
        </mxCell>
        <mxCell id="Tmlr_BJbro9G57cvRw0v-18" value="根据推荐商品清单插入或更新大件库区内的商品" style="rounded=0;whiteSpace=wrap;html=1;strokeColor=default;fontFamily=Helvetica;fontSize=12;fontColor=default;fillColor=default;" vertex="1" parent="WIyWlLk6GJQsqaUBKTNV-1">
          <mxGeometry x="160" y="780" width="120" height="60" as="geometry" />
        </mxCell>
      </root>
    </mxGraphModel>
  </diagram>
</mxfile>
